<svg width="281" height="67" viewBox="0 0 281 67" fill="none" xmlns="http://www.w3.org/2000/svg"><path d="M.8 66V1.2h16.4c5.653 0 10.053.72 13.2 2.16 3.147 1.387 5.36 3.6 6.64 6.64 1.28 2.987 1.92 6.88 1.92 11.68V45.2c0 4.853-.64 8.827-1.92 11.92-1.28 3.04-3.493 5.28-6.64 6.72C27.307 65.28 22.96 66 17.36 66H.8Zm14.32-9.92h2.24c2.187 0 3.76-.32 4.72-.96.96-.64 1.547-1.6 1.76-2.88.267-1.28.4-2.88.4-4.8V19.2c0-1.92-.16-3.467-.48-4.64-.267-1.173-.88-2.027-1.84-2.56-.96-.533-2.507-.8-4.64-.8h-2.16v44.88Zm51.115 10.88c-4.853 0-8.693-.853-11.52-2.56s-4.853-4.16-6.08-7.36c-1.227-3.2-1.84-7.013-1.84-11.44V21.52c0-4.48.613-8.293 1.84-11.44 1.227-3.147 3.253-5.547 6.08-7.2C57.542 1.173 61.382.32 66.235.32c4.907 0 8.773.853 11.6 2.56 2.88 1.653 4.933 4.053 6.16 7.2 1.227 3.147 1.84 6.96 1.84 11.44V45.6c0 4.427-.613 8.24-1.84 11.44-1.227 3.2-3.28 5.653-6.16 7.36-2.827 1.707-6.693 2.56-11.6 2.56Zm0-10.16c1.493 0 2.587-.373 3.28-1.12.693-.747 1.147-1.707 1.36-2.88a20.11 20.11 0 0 0 .32-3.6V18c0-1.28-.107-2.48-.32-3.6-.213-1.173-.667-2.133-1.36-2.88-.693-.747-1.787-1.12-3.28-1.12-1.387 0-2.427.373-3.12 1.12-.693.747-1.147 1.707-1.36 2.88-.213 1.12-.32 2.32-.32 3.6v31.2c0 1.227.08 2.427.24 3.6.213 1.173.64 2.133 1.28 2.88.693.747 1.787 1.12 3.28 1.12Zm33.53 9.2V11.84h-9.76V1.2h33.84v10.64h-9.68V66h-14.4Zm28.665 0V53.68h12.32V66h-12.32Zm39.211.96c-4.853 0-8.693-.853-11.52-2.56-2.826-1.707-4.853-4.16-6.08-7.36-1.226-3.2-1.84-7.013-1.84-11.44V21.52c0-4.48.614-8.293 1.84-11.44 1.227-3.147 3.254-5.547 6.08-7.2 2.827-1.707 6.667-2.56 11.52-2.56 4.907 0 8.774.853 11.6 2.56 2.88 1.653 4.934 4.053 6.16 7.2 1.227 3.147 1.84 6.96 1.84 11.44V45.6c0 4.427-.613 8.24-1.84 11.44-1.226 3.2-3.28 5.653-6.16 7.36-2.826 1.707-6.693 2.56-11.6 2.56Zm0-10.16c1.494 0 2.587-.373 3.28-1.12.694-.747 1.147-1.707 1.36-2.88.214-1.173.32-2.373.32-3.6V18c0-1.28-.106-2.48-.32-3.6-.213-1.173-.666-2.133-1.36-2.88-.693-.747-1.786-1.12-3.28-1.12-1.386 0-2.426.373-3.12 1.12-.693.747-1.146 1.707-1.36 2.88-.213 1.12-.32 2.32-.32 3.6v31.2c0 1.227.08 2.427.24 3.6.214 1.173.64 2.133 1.28 2.88.694.747 1.787 1.12 3.28 1.12Zm28.315 9.2V1.2h17.84c4.374 0 8.16.48 11.36 1.44 3.2.96 5.68 2.693 7.44 5.2 1.814 2.453 2.72 5.947 2.72 10.48 0 2.667-.213 5.04-.64 7.12-.426 2.08-1.226 3.893-2.4 5.44-1.12 1.493-2.746 2.747-4.88 3.76l8.88 31.36h-14.8l-7.12-29.04h-4.08V66h-14.32Zm14.32-37.28h4c2.027 0 3.6-.347 4.72-1.04 1.12-.747 1.894-1.787 2.32-3.12.48-1.387.72-3.04.72-4.96 0-2.773-.506-4.933-1.52-6.48-1.013-1.547-2.88-2.32-5.6-2.32h-4.64v17.92Zm49.904 38.24c-4.48 0-8.027-.933-10.64-2.8-2.56-1.867-4.4-4.48-5.52-7.84-1.067-3.413-1.6-7.333-1.6-11.76V22.8c0-4.587.587-8.56 1.76-11.92 1.173-3.36 3.173-5.947 6-7.76 2.88-1.867 6.773-2.8 11.68-2.8 4.8 0 8.56.8 11.28 2.4 2.773 1.6 4.747 3.813 5.92 6.64 1.173 2.827 1.76 6.133 1.76 9.92v4.16h-14v-5.28c0-1.387-.107-2.667-.32-3.84-.16-1.173-.587-2.107-1.28-2.8-.64-.747-1.707-1.12-3.2-1.12-1.547 0-2.667.427-3.36 1.28-.693.8-1.147 1.813-1.36 3.04a29.686 29.686 0 0 0-.24 3.84v30c0 1.44.133 2.8.4 4.08.32 1.227.853 2.24 1.6 3.04.8.747 1.92 1.12 3.36 1.12 1.493 0 2.64-.4 3.44-1.2.8-.8 1.36-1.84 1.68-3.12.32-1.28.48-2.64.48-4.08v-7.6h-5.84v-8.4h18.72V66h-9.44l-.8-5.36c-.853 1.813-2.107 3.333-3.76 4.56-1.653 1.173-3.893 1.76-6.72 1.76Z" fill="#A1D33D"/></svg>