<svg width="36" height="33" viewBox="0 0 36 33" fill="none" xmlns="http://www.w3.org/2000/svg">
<g clip-path="url(#clip0_1965_30985)">
<path d="M20.4864 6.13635C20.4942 6.27783 20.5099 6.42716 20.5099 6.56864V17.3286C20.5099 17.8552 20.5099 17.8552 19.9991 17.8552C19.0716 17.8552 18.1363 17.8473 17.2089 17.8552C16.9416 17.8552 16.8237 17.7844 16.8237 17.4936C16.8316 13.776 16.8316 10.0505 16.8316 6.33285C16.8316 6.26997 16.8473 6.19923 16.8473 6.13635H20.4864ZM16.0063 13.3594V17.3914C16.0063 17.8473 16.0063 17.8473 15.5662 17.8473C14.6152 17.8473 13.6641 17.8395 12.7131 17.8552C12.4145 17.863 12.328 17.753 12.328 17.4622C12.3359 14.727 12.3359 11.9997 12.328 9.26451C12.328 8.98157 12.4066 8.86367 12.7053 8.87153C13.6799 8.88725 14.6545 8.88725 15.6291 8.87153C15.9277 8.86367 16.0142 8.97371 16.0142 9.26451C15.9985 10.6321 16.0063 11.9997 16.0063 13.3594ZM11.4949 14.5777C11.4949 15.5444 11.487 16.5033 11.5027 17.47C11.5106 17.7609 11.4163 17.863 11.1176 17.863C10.143 17.8473 9.16839 17.8473 8.19379 17.863C7.89512 17.8709 7.80866 17.753 7.81652 17.47C7.82438 15.5444 7.82438 13.6188 7.81652 11.6932C7.81652 11.4181 7.91084 11.3159 8.18593 11.3159C9.16839 11.3238 10.1587 11.3238 11.1412 11.3159C11.4241 11.3159 11.5027 11.4259 11.5027 11.6932C11.487 12.652 11.4949 13.6188 11.4949 14.5777Z" fill="white"/>
<path d="M1.46594 31.9791V31.4839C2.21261 29.291 2.99073 27.106 3.6981 24.8975C3.93389 24.1587 4.28758 23.9229 5.05783 23.9229C13.7349 23.9464 22.4042 23.9464 31.0813 23.9229C31.8516 23.9229 32.2052 24.1587 32.441 24.8975C33.1405 27.106 33.9187 29.291 34.6732 31.4839V31.9791C34.3431 32.0026 34.013 32.0419 33.6829 32.0419H2.45627C2.12616 32.0419 1.79605 32.0026 1.46594 31.9791ZM18.1521 1.36551H30.3504C31.7022 1.36551 32.1817 1.79779 32.1817 3.13394C32.1974 9.02872 32.1974 14.9156 32.1817 20.8104C32.1817 22.1466 31.6944 22.5789 30.3425 22.5789H5.78092C4.42905 22.5789 3.94961 22.1387 3.94961 20.8104C3.93389 14.9156 3.93389 9.02872 3.94961 3.13394C3.94961 1.80565 4.43691 1.37337 5.78878 1.37337C9.90726 1.36551 14.0257 1.36551 18.1521 1.36551ZM18.0578 20.4882H29.5094C30.594 20.4882 30.6333 20.4489 30.6333 19.3642V4.58799C30.6333 3.50335 30.5783 3.44047 29.5251 3.44047H6.61405C5.55299 3.44047 5.49011 3.50335 5.49011 4.57227V19.3485C5.49011 20.4646 5.51369 20.4882 6.68479 20.4882C10.481 20.496 14.2694 20.4882 18.0578 20.4882Z" fill="white"/>
</g>
<defs>
<clipPath id="clip0_1965_30985">
<rect width="34.5151" height="32" fill="white" transform="translate(0.801758 0.697449)"/>
</clipPath>
</defs>
</svg>
