<svg width="33" height="33" viewBox="0 0 33 33" fill="none" xmlns="http://www.w3.org/2000/svg">
<path d="M16.2584 7.60519C14.9874 7.60519 13.9609 7.67852 13.1787 7.82517L12.4455 6.35867C10.539 6.65197 8.65705 7.23857 6.79949 8.11847C3.52432 13.1045 2.20448 18.2617 2.83996 23.59C4.84417 25.1053 7.11723 26.2541 9.65915 27.0362C10.2458 26.2541 10.7346 25.472 11.1256 24.6898C9.95245 24.201 9.19476 23.8099 8.85258 23.5166L9.36585 23.15C11.7611 24.1766 14.0831 24.6898 16.3317 24.6898L16.2584 7.60519ZM11.7122 20.437C11.0543 20.4265 10.4269 20.1333 9.96673 19.6214C9.5066 19.1095 9.2511 18.4204 9.25593 17.7043C9.26077 16.9883 9.52556 16.3033 9.99255 15.7989C10.4596 15.2944 11.0909 15.0113 11.7489 15.0113C12.4069 15.0113 13.0383 15.2944 13.5053 15.7989C13.9723 16.3033 14.237 16.9883 14.2419 17.7043C14.2467 18.4204 13.9912 19.1095 13.5311 19.6214C13.071 20.1333 12.4435 20.4265 11.7856 20.437" fill="white"/>
<path d="M16.1117 7.60519C17.3827 7.60519 18.4092 7.67852 19.1914 7.82517L19.9246 6.35867C21.8311 6.65197 23.7131 7.23857 25.5706 8.11847C28.8458 13.1045 30.1656 18.2617 29.5302 23.59C27.526 25.1053 25.2529 26.2541 22.711 27.0362C22.1244 26.2541 21.6355 25.472 21.2445 24.6898C22.4177 24.201 23.1754 23.8099 23.5175 23.5166L23.0043 23.15C20.609 24.1766 18.287 24.6898 16.0384 24.6898L16.1117 7.60519ZM20.6579 20.437C21.3158 20.4265 21.9433 20.1333 22.4034 19.6214C22.8635 19.1095 23.119 18.4204 23.1142 17.7043C23.1093 16.9883 22.8446 16.3033 22.3776 15.7989C21.9106 15.2944 21.2792 15.0113 20.6212 15.0113C19.9632 15.0113 19.3319 15.2944 18.8649 15.7989C18.3979 16.3033 18.1331 16.9883 18.1282 17.7043C18.1234 18.4204 18.3789 19.1095 18.839 19.6214C19.2992 20.1333 19.9266 20.4265 20.5845 20.437" fill="white"/>
</svg>
