<svg width="33" height="33" viewBox="0 0 33 33" fill="none" xmlns="http://www.w3.org/2000/svg">
<path d="M22.9888 21.4618H19.2157V32.6974C23.2172 32.0644 26.833 29.946 29.3415 26.7648C31.8501 23.5836 33.0671 19.5735 32.7496 15.5347C32.4321 11.4959 30.6035 7.72522 27.6287 4.97507C24.6539 2.22491 20.7515 0.697449 16.7002 0.697449C12.6489 0.697449 8.74657 2.22491 5.77174 4.97507C2.79691 7.72522 0.968341 11.4959 0.650858 15.5347C0.333374 19.5735 1.55032 23.5836 4.0589 26.7648C6.56747 29.946 10.1832 32.0644 14.1848 32.6974V21.4618H10.0762V16.7663H14.1848V12.9931C14.4084 8.01811 17.6505 6.11755 23.9112 7.29142V11.2323H21.7311C20.11 11.2882 19.2716 12.1267 19.2157 13.7477V16.7663H23.7015" fill="white"/>
</svg>
