<svg width="33" height="33" viewBox="0 0 33 33" fill="none" xmlns="http://www.w3.org/2000/svg">
<path fill-rule="evenodd" clip-rule="evenodd" d="M32.1381 0.697449H0.138062V32.6974H32.1381V0.697449ZM9.95056 21.6349C12.6775 21.6349 14.8881 19.4244 14.8881 16.6974C14.8881 13.9705 12.6775 11.7599 9.95056 11.7599C7.22366 11.7599 5.01306 13.9705 5.01306 16.6974C5.01306 19.4244 7.22366 21.6349 9.95056 21.6349ZM27.2631 16.6974C27.2631 19.4244 25.0525 21.6349 22.3256 21.6349C19.5987 21.6349 17.3881 19.4244 17.3881 16.6974C17.3881 13.9705 19.5987 11.7599 22.3256 11.7599C25.0525 11.7599 27.2631 13.9705 27.2631 16.6974Z" fill="white"/>
</svg>
