<svg width="33" height="33" viewBox="0 0 33 33" fill="none" xmlns="http://www.w3.org/2000/svg">
<g clip-path="url(#clip0_1965_30919)">
<path fill-rule="evenodd" clip-rule="evenodd" d="M16.2151 0.697449C7.37829 0.697449 0.215088 7.87185 0.215088 16.7246C0.215088 23.8046 4.79909 29.8126 11.1575 31.931C11.9575 32.0782 12.2487 31.5838 12.2487 31.1582C12.2487 30.779 12.2359 29.7694 12.2279 28.4334C7.77669 29.4014 6.83749 26.2846 6.83749 26.2846C6.11109 24.4318 5.06149 23.939 5.06149 23.939C3.60869 22.947 5.17189 22.9662 5.17189 22.9662C6.77669 23.0782 7.62149 24.6174 7.62149 24.6174C9.04869 27.0654 11.3671 26.3582 12.2775 25.9486C12.4247 24.9134 12.8375 24.2078 13.2951 23.8078C9.74309 23.403 6.00709 22.027 6.00709 15.8862C6.00709 14.1374 6.63109 12.7054 7.65349 11.5854C7.48869 11.1806 6.93989 9.55025 7.81029 7.34545C7.81029 7.34545 9.15429 6.91345 12.2103 8.98705C13.5155 8.63107 14.8622 8.44976 16.2151 8.44785C17.5751 8.45425 18.9431 8.63185 20.2215 8.98705C23.2759 6.91345 24.6167 7.34385 24.6167 7.34385C25.4903 9.55025 24.9399 11.1806 24.7767 11.5854C25.8007 12.7054 26.4215 14.1374 26.4215 15.8862C26.4215 22.043 22.6791 23.3982 19.1159 23.795C19.6903 24.2894 20.2007 25.267 20.2007 26.763C20.2007 28.9038 20.1815 30.6334 20.1815 31.1582C20.1815 31.587 20.4695 32.0862 21.2823 31.9294C24.4684 30.8608 27.238 28.8179 29.1999 26.0895C31.1617 23.3611 32.2164 20.0852 32.2151 16.7246C32.2151 7.87185 25.0503 0.697449 16.2151 0.697449Z" fill="white"/>
</g>
<defs>
<clipPath id="clip0_1965_30919">
<rect width="32" height="32" fill="white" transform="translate(0.215088 0.697449)"/>
</clipPath>
</defs>
</svg>
