<svg width="36" height="36" viewBox="0 0 36 36" fill="none" xmlns="http://www.w3.org/2000/svg">
<path d="M25.9997 1.69745H10.8309C6.18307 1.69745 2.41528 5.46523 2.41528 10.113V25.2819C2.41528 29.9297 6.18307 33.6974 10.8309 33.6974H25.9997C30.6475 33.6974 34.4153 29.9297 34.4153 25.2819V10.113C34.4153 5.46523 30.6475 1.69745 25.9997 1.69745Z" stroke="white" stroke-width="3"/>
<path d="M18.4153 25.178C22.5467 25.178 25.8959 21.8288 25.8959 17.6974C25.8959 13.5661 22.5467 10.2169 18.4153 10.2169C14.284 10.2169 10.9348 13.5661 10.9348 17.6974C10.9348 21.8288 14.284 25.178 18.4153 25.178Z" stroke="white" stroke-width="3"/>
<path d="M27.8698 8.86629C28.2141 8.86629 28.4932 8.5872 28.4932 8.24291C28.4932 7.89863 28.2141 7.61954 27.8698 7.61954C27.5256 7.61954 27.2465 7.89863 27.2465 8.24291C27.2465 8.5872 27.5256 8.86629 27.8698 8.86629Z" stroke="white" stroke-width="3"/>
</svg>
