<svg width="33" height="33" viewBox="0 0 33 33" fill="none" xmlns="http://www.w3.org/2000/svg">
<g clip-path="url(#clip0_1965_30988)">
<path opacity="0.25" d="M27.5996 11.5793V5.70981H15.3276L11.4759 5.74278L11.443 5.70981H5.62292V11.5285L5.65589 11.5779L5.62292 15.4296V21.4488C7.89078 19.615 10.1422 17.7977 12.3922 15.9461C12.8427 15.5793 13.1422 15.5793 13.5597 16.0134C15.2108 17.7139 18.285 20.7208 19.9512 22.4049C20.3015 22.7716 26.2644 28.9433 27.5652 29.8774L27.5982 17.9804V11.5779L27.5996 11.5793Z" fill="white"/>
<path opacity="0.5" d="M30.0419 32.0875L29.5007 23.7126L24.645 18.8568L17.2507 26.2524V32.0875H30.0419Z" fill="white"/>
<path d="M27.5996 27.8005L16.2233 16.4255C13.8318 14.034 9.95541 14.034 7.56392 16.4255L3.11475 20.8747V27.8019H27.5996V27.8005Z" fill="#F9F7F7"/>
<path d="M11.476 29.4873V27.7029H5.62293V21.8334H1.22046V32.0876H11.476V29.4873ZM32.0007 21.8334H27.5652L27.5996 21.8664V27.7029H21.7795L21.7466 27.67V32.0876H32.0007V21.8334ZM3.02128 11.5793H5.6559L5.62293 11.5285V5.70981H11.4416L11.476 5.74278V1.30872H1.22046V11.5793H3.02128ZM21.7466 2.70844V5.70981H27.5996V11.5793H32.0007V1.30872H21.7466V2.70844Z" fill="white"/>
<path d="M11.476 2.70844V5.74278L15.3276 5.70981H21.7466V1.30872H11.476V2.70844ZM21.7466 27.67L17.8784 27.7029H11.476V32.0876H21.7466V27.67ZM29.8001 11.5793H27.5996V17.9818L27.5652 21.7496V21.8334H32.0007V11.5793H29.8001ZM3.02128 21.8334H5.62293V15.431L5.6559 11.5793H1.22046V21.8334H3.02128Z" fill="#E8E8E8"/>
<path d="M20.6518 8.19333C18.9293 8.19333 17.5543 9.56833 17.5845 11.2455C17.6147 12.9529 18.9746 14.2977 20.6669 14.2977C22.3592 14.2977 23.704 12.9076 23.704 11.2606C23.704 9.53811 22.3592 8.17822 20.6518 8.19333Z" fill="white"/>
</g>
<defs>
<clipPath id="clip0_1965_30988">
<rect width="32" height="32" fill="white" transform="translate(0.594116 0.697449)"/>
</clipPath>
</defs>
</svg>
