<svg width="33" height="33" viewBox="0 0 33 33" fill="none" xmlns="http://www.w3.org/2000/svg">
<g clip-path="url(#clip0_1965_30920)">
<path d="M30.1236 0.697449H2.85481C1.54856 0.697449 0.49231 1.7287 0.49231 3.0037V30.3849C0.49231 31.6599 1.54856 32.6974 2.85481 32.6974H30.1236C31.4298 32.6974 32.4923 31.6599 32.4923 30.3912V3.0037C32.4923 1.7287 31.4298 0.697449 30.1236 0.697449ZM9.98606 27.9662H5.23606V12.6912H9.98606V27.9662ZM7.61106 10.6099C6.08606 10.6099 4.85481 9.3787 4.85481 7.85995C4.85481 6.3412 6.08606 5.10995 7.61106 5.10995C9.12981 5.10995 10.3611 6.3412 10.3611 7.85995C10.3611 9.37245 9.12981 10.6099 7.61106 10.6099ZM27.7611 27.9662H23.0173V20.5412C23.0173 18.7724 22.9861 16.4912 20.5486 16.4912C18.0798 16.4912 17.7048 18.4224 17.7048 20.4162V27.9662H12.9673V12.6912H17.5173V14.7787H17.5798C18.2111 13.5787 19.7611 12.3099 22.0673 12.3099C26.8736 12.3099 27.7611 15.4724 27.7611 19.5849V27.9662V27.9662Z" fill="white"/>
</g>
<defs>
<clipPath id="clip0_1965_30920">
<rect width="32" height="32" fill="white" transform="translate(0.49231 0.697449)"/>
</clipPath>
</defs>
</svg>
