<svg width="33" height="33" viewBox="0 0 33 33" fill="none" xmlns="http://www.w3.org/2000/svg">
<path d="M15.8429 2.69745C16.4062 2.69745 16.9695 2.69745 17.5329 2.69745C17.5766 2.70401 17.6203 2.71522 17.6641 2.71632C18.8664 2.74393 20.0655 2.8235 21.2598 2.97006C22.3071 3.09858 23.3431 3.28533 24.3608 3.5749C25.3185 3.84752 26.1812 4.28474 26.9063 4.9943C28.2795 6.33741 29.0234 8.00044 29.3357 9.88796C29.3748 10.1248 29.4076 10.3624 29.4435 10.5997V14.7833C29.436 14.8276 29.4239 14.8719 29.4218 14.9167C29.3628 16.2142 29.2587 17.5072 29.0645 18.7913C28.9961 19.2449 28.9373 19.7018 28.7375 20.1235C28.4056 20.8237 27.904 21.3815 27.3197 21.8655C26.0927 22.8813 24.6873 23.5225 23.1499 23.8553C22.5096 23.9939 21.8553 24.079 21.2029 24.1451C20.2297 24.2438 19.2537 24.324 18.277 24.3756C17.303 24.427 16.3295 24.3672 15.3581 24.2769C14.2585 24.1749 13.1662 24.024 12.0819 23.8124C11.7844 23.7541 11.488 23.6907 11.158 23.6229C11.1921 23.9742 11.2103 24.3103 11.2597 24.6417C11.382 25.4609 11.6875 26.1904 12.3155 26.748C12.8099 27.1868 13.399 27.4263 14.0273 27.5792C14.7127 27.746 15.4118 27.7925 16.1125 27.837C17.6311 27.9338 19.1293 27.799 20.6109 27.4548C20.8877 27.3905 21.1624 27.3164 21.4478 27.2442C21.4824 27.9907 21.5176 28.7274 21.5474 29.4643C21.5487 29.5004 21.5109 29.5561 21.4771 29.5725C21.3164 29.6513 21.153 29.7259 20.9864 29.7907C19.7205 30.2824 18.4047 30.5378 17.0578 30.6447C16.8494 30.6614 16.6409 30.6799 16.4325 30.6974H14.9839C14.9045 30.6887 14.8254 30.6778 14.7457 30.6717C14.4471 30.6493 14.1477 30.6357 13.85 30.6056C12.7058 30.4899 11.5789 30.2766 10.4651 29.9862C9.11522 29.6343 7.92764 28.9926 6.95521 27.9634C6.13649 27.0966 5.56429 26.0737 5.14233 24.9586C4.5425 23.374 4.26137 21.7176 4.09317 20.0373C3.96924 18.7992 3.91505 17.5567 3.89627 16.3126C3.89547 16.2587 3.88447 16.2049 3.8783 16.1513C3.8783 14.611 3.8783 13.0705 3.8783 11.5302C3.885 11.481 3.89385 11.4323 3.89788 11.3828C3.92685 11.0244 3.94241 10.6645 3.98506 10.308C4.14763 8.94434 4.54491 7.66029 5.26867 6.493C5.86233 5.5357 6.60674 4.72661 7.57569 4.15732C8.18383 3.80021 8.85742 3.60799 9.53424 3.43873C11.2637 3.00643 13.0272 2.8369 14.8007 2.75104C15.1481 2.73409 15.4955 2.71604 15.8429 2.69827V2.69745ZM16.6857 10.3626C16.4612 9.97847 16.2498 9.60961 16.0314 9.24512C15.6446 8.59872 15.125 8.09943 14.442 7.79017C13.7741 7.48775 13.0696 7.39834 12.3464 7.45084C10.78 7.56459 9.64959 8.34224 8.9709 9.78625C8.58031 10.6172 8.47543 11.51 8.47462 12.4192C8.47247 14.8027 8.47382 17.1859 8.47409 19.5695C8.47409 19.6179 8.47864 19.666 8.48133 19.7169H11.3458V19.5323C11.3458 17.2491 11.3415 14.9659 11.3503 12.6827C11.3517 12.3393 11.3839 11.989 11.4552 11.6541C11.5912 11.0162 11.9528 10.5486 12.5991 10.3982C12.8942 10.3296 13.2131 10.3129 13.5155 10.3405C14.266 10.4089 14.7763 10.8237 15.0386 11.5485C15.1937 11.977 15.2527 12.4219 15.2538 12.8752C15.257 14.165 15.2556 15.4546 15.2559 16.7443C15.2559 16.7979 15.2559 16.8513 15.2559 16.9111H18.1147C18.1147 16.8472 18.1147 16.7933 18.1147 16.7394C18.1153 15.4633 18.1072 14.1872 18.1214 12.9116C18.1255 12.5591 18.166 12.2009 18.2419 11.8572C18.383 11.2188 18.7084 10.7083 19.3391 10.4594C19.7063 10.3145 20.0896 10.2924 20.4746 10.3359C21.1841 10.416 21.6576 10.8021 21.8784 11.5012C21.9991 11.8838 22.0211 12.2781 22.0211 12.6756C22.0206 14.9725 22.0216 17.2693 22.0187 19.5662C22.0187 19.6843 22.0388 19.7313 22.1702 19.7303C23.0287 19.7237 23.8871 19.727 24.7455 19.727C24.789 19.727 24.8324 19.727 24.8928 19.727C24.8928 19.6668 24.8928 19.6225 24.8928 19.5785C24.8928 17.1859 24.892 14.7934 24.8931 12.4008C24.8933 11.6445 24.8145 10.9002 24.5615 10.1849C24.1757 9.09473 23.4941 8.26841 22.4441 7.79017C21.6812 7.44236 20.8764 7.37729 20.0553 7.48037C18.8675 7.62939 17.9532 8.2181 17.3295 9.26426C17.1165 9.62164 16.9089 9.98203 16.6852 10.3643L16.6857 10.3626Z" fill="white"/>
</svg>
