<svg width="33" height="33" viewBox="0 0 33 33" fill="none" xmlns="http://www.w3.org/2000/svg">
<g clip-path="url(#clip0_1965_30972)">
<path d="M10.2825 19.7599C10.2825 20.4064 10.0257 21.0264 9.56854 21.4835C9.11142 21.9406 8.49144 22.1974 7.84497 22.1974C7.19851 22.1974 6.57852 21.9406 6.1214 21.4835C5.66428 21.0264 5.40747 20.4064 5.40747 19.7599C5.40747 18.3849 6.46997 17.3224 7.84497 17.3224H10.2825V19.7599ZM11.47 19.7599C11.47 19.1135 11.7268 18.4935 12.1839 18.0364C12.641 17.5793 13.261 17.3224 13.9075 17.3224C14.5539 17.3224 15.1739 17.5793 15.631 18.0364C16.0882 18.4935 16.345 19.1135 16.345 19.7599V25.8224C16.345 26.4689 16.0882 27.0889 15.631 27.546C15.1739 28.0031 14.5539 28.2599 13.9075 28.2599C13.261 28.2599 12.641 28.0031 12.1839 27.546C11.7268 27.0889 11.47 26.4689 11.47 25.8224V19.7599Z" fill="white"/>
<path d="M13.9075 10.0099C13.261 10.0099 12.641 9.75314 12.1839 9.29602C11.7268 8.8389 11.47 8.21891 11.47 7.57245C11.47 6.92598 11.7268 6.306 12.1839 5.84888C12.641 5.39176 13.261 5.13495 13.9075 5.13495C15.2825 5.13495 16.345 6.19745 16.345 7.57245V10.0099H13.9075ZM13.9075 11.1974C14.5539 11.1974 15.1739 11.4543 15.631 11.9114C16.0882 12.3685 16.345 12.9885 16.345 13.6349C16.345 14.2814 16.0882 14.9014 15.631 15.3585C15.1739 15.8156 14.5539 16.0724 13.9075 16.0724H7.84497C7.19851 16.0724 6.57852 15.8156 6.1214 15.3585C5.66428 14.9014 5.40747 14.2814 5.40747 13.6349C5.40747 12.9885 5.66428 12.3685 6.1214 11.9114C6.57852 11.4543 7.19851 11.1974 7.84497 11.1974H13.9075Z" fill="white"/>
<path d="M23.6575 13.6349C23.6575 12.9885 23.9143 12.3685 24.3714 11.9114C24.8285 11.4543 25.4485 11.1974 26.095 11.1974C26.7414 11.1974 27.3614 11.4543 27.8185 11.9114C28.2757 12.3685 28.5325 12.9885 28.5325 13.6349C28.5325 15.0099 27.47 16.0724 26.095 16.0724H23.6575V13.6349ZM22.47 13.6349C22.47 14.2814 22.2132 14.9014 21.756 15.3585C21.2989 15.8156 20.6789 16.0724 20.0325 16.0724C19.386 16.0724 18.766 15.8156 18.3089 15.3585C17.8518 14.9014 17.595 14.2814 17.595 13.6349V7.57245C17.595 6.92598 17.8518 6.30599 18.3089 5.84888C18.766 5.39176 19.386 5.13495 20.0325 5.13495C20.6789 5.13495 21.2989 5.39176 21.756 5.84888C22.2132 6.30599 22.47 6.92598 22.47 7.57245V13.6349Z" fill="white"/>
<path d="M20.0325 23.3849C20.6789 23.3849 21.2989 23.6418 21.756 24.0989C22.2132 24.556 22.47 25.176 22.47 25.8224C22.47 26.4689 22.2132 27.0889 21.756 27.546C21.2989 28.0031 20.6789 28.2599 20.0325 28.2599C18.6575 28.2599 17.595 27.1974 17.595 25.8224V23.3849H20.0325ZM20.0325 22.1974C19.386 22.1974 18.766 21.9406 18.3089 21.4835C17.8518 21.0264 17.595 20.4064 17.595 19.7599C17.595 19.1135 17.8518 18.4935 18.3089 18.0364C18.766 17.5793 19.386 17.3224 20.0325 17.3224H26.095C26.7414 17.3224 27.3614 17.5793 27.8185 18.0364C28.2757 18.4935 28.5325 19.1135 28.5325 19.7599C28.5325 20.4064 28.2757 21.0264 27.8185 21.4835C27.3614 21.9406 26.7414 22.1974 26.095 22.1974H20.0325Z" fill="white"/>
</g>
<defs>
<clipPath id="clip0_1965_30972">
<rect width="32" height="32" fill="white" transform="translate(0.969971 0.697449)"/>
</clipPath>
</defs>
</svg>
