<svg width="33" height="33" viewBox="0 0 33 33" fill="none" xmlns="http://www.w3.org/2000/svg">
<g clip-path="url(#clip0_1965_30982)">
<path d="M32.5244 0.697449H0.524414V32.6974H32.5244V0.697449Z" fill="black"/>
<path d="M12.6164 12.5519C13.488 11.2763 14.9761 10.2842 17.3146 10.4968C19.6531 10.7094 21.779 12.0558 21.6514 16.591C21.5238 21.1263 19.5822 22.6852 16.8823 22.7844C14.1825 22.8837 12.5597 21.2609 12.5172 19.5389C12.4747 17.817 13.5943 15.7336 18.1295 15.8115C22.6647 15.8895 25.974 17.9729 26.1866 21.764C26.3992 25.5552 22.9269 29.4526 16.7477 29.4172C10.5685 29.3818 5.69309 25.8741 5.65766 16.7328C5.62223 7.59145 10.6535 3.97745 16.5351 3.97745C22.4167 3.97745 26.0307 6.88282 27.3913 11.8645" fill="black"/>
<path d="M12.6164 12.5519C13.488 11.2763 14.9761 10.2842 17.3146 10.4968C19.6531 10.7094 21.779 12.0558 21.6514 16.591C21.5238 21.1263 19.5822 22.6852 16.8823 22.7844C14.1825 22.8837 12.5597 21.2609 12.5172 19.5389C12.4747 17.817 13.5943 15.7336 18.1295 15.8115C22.6647 15.8895 25.974 17.9729 26.1866 21.764C26.3992 25.5552 22.9269 29.4526 16.7477 29.4172C10.5685 29.3818 5.69309 25.8741 5.65766 16.7328C5.62223 7.59145 10.6535 3.97745 16.5351 3.97745C22.4167 3.97745 26.0307 6.88282 27.3913 11.8645" stroke="white" stroke-width="3"/>
</g>
<defs>
<clipPath id="clip0_1965_30982">
<rect width="32" height="32" fill="white" transform="translate(0.524414 0.697449)"/>
</clipPath>
</defs>
</svg>
