<svg width="33" height="33" viewBox="0 0 33 33" fill="none" xmlns="http://www.w3.org/2000/svg">
<g clip-path="url(#clip0_1965_30923)">
<path d="M10.1137 29.6975C22.1862 29.6975 28.7912 19.6931 28.7912 11.02C28.7912 10.7387 28.785 10.4512 28.7725 10.17C30.0574 9.24079 31.1662 8.08985 32.0469 6.77124C30.8502 7.30364 29.5797 7.65135 28.2787 7.80249C29.6486 6.98139 30.6742 5.69147 31.1656 4.17187C29.8769 4.93559 28.4676 5.47433 26.9981 5.76499C26.008 4.71292 24.6989 4.01633 23.2731 3.78291C21.8474 3.54949 20.3845 3.79224 19.1105 4.47364C17.8366 5.15503 16.8226 6.23712 16.2253 7.55259C15.6281 8.86807 15.4808 10.3437 15.8062 11.7512C13.1969 11.6203 10.6441 10.9424 8.31352 9.76164C5.98291 8.58083 3.92647 6.92343 2.2775 4.89687C1.43941 6.34183 1.18295 8.0517 1.56025 9.67896C1.93755 11.3062 2.92029 12.7288 4.30875 13.6575C3.26638 13.6244 2.24684 13.3438 1.33437 12.8387V12.92C1.33344 14.4364 1.85767 15.9063 2.81795 17.0799C3.77824 18.2534 5.11531 19.0583 6.60187 19.3575C5.63628 19.6217 4.62285 19.6602 3.64 19.47C4.05948 20.7741 4.87564 21.9147 5.97457 22.7326C7.0735 23.5505 8.40037 24.005 9.77 24.0325C7.44477 25.859 4.57244 26.8497 1.61562 26.845C1.09126 26.8442 0.567407 26.8121 0.046875 26.7487C3.05068 28.6758 6.54492 29.6994 10.1137 29.6975Z" fill="white"/>
</g>
<defs>
<clipPath id="clip0_1965_30923">
<rect width="32" height="32" fill="white" transform="translate(0.046875 0.697449)"/>
</clipPath>
</defs>
</svg>
