<svg width="36" height="33" viewBox="0 0 36 33" fill="none" xmlns="http://www.w3.org/2000/svg">
<path d="M34.4276 9.49354C34.4276 9.49354 34.0937 7.01262 33.0808 5.91878C32.1823 4.95498 30.9622 4.40696 29.6857 4.39376C24.9445 4.03192 17.8314 4.03192 17.8314 4.03192H17.8164C17.8164 4.03192 10.7039 4.03192 5.96201 4.39654C4.68551 4.40981 3.46547 4.95781 2.56686 5.92155C1.55079 7.01262 1.22145 9.49354 1.22145 9.49354C1.01042 11.4287 0.897214 13.3745 0.882324 15.3225V18.0551C0.897212 20.0031 1.01042 21.9489 1.22145 23.8841C1.22145 23.8841 1.55079 26.3657 2.56751 27.4616C3.85618 28.8958 5.54985 28.848 6.30374 29.0012C9.01478 29.2785 17.8242 29.363 17.8242 29.363C17.8242 29.363 24.9438 29.3519 29.6857 28.9873C30.9622 28.9741 32.1823 28.4261 33.0808 27.4623C34.0969 26.3692 34.4276 23.8876 34.4276 23.8876C34.6382 21.9524 34.7512 20.0066 34.766 18.0586V15.3225C34.7512 13.3745 34.6382 11.4287 34.4276 9.49354ZM14.326 21.3664V11.2459L23.4817 16.3235L14.326 21.3664Z" fill="white"/>
</svg>
