<svg width="800" height="600" viewBox="0 0 800 600" fill="none" xmlns="http://www.w3.org/2000/svg"><g clip-path="url(#a)"><path d="M800 0H0v600h800z" fill="#EFF1F3"/><path fill-rule="evenodd" clip-rule="evenodd" d="M225 159.877c.067-9.562 7.797-17.301 17.36-17.377h315.28c9.59 0 17.36 7.787 17.36 17.377v280.246c-.067 9.562-7.797 17.301-17.36 17.377H242.36c-9.59-.009-17.36-7.787-17.36-17.377zm315.002 17.624h-280v245l162.61-162.646c6.834-6.831 17.911-6.831 24.745 0l92.645 92.82zm-245.004 69.998c0 19.33 15.67 35 35 35s35-15.67 35-35-15.67-35-35-35-35 15.67-35 35" fill="#03856F"/></g><defs><clipPath id="a"><path fill="#fff" d="M0 0h800v600H0z"/></clipPath></defs></svg>