<svg width="51" height="52" viewBox="0 0 51 52" fill="none" xmlns="http://www.w3.org/2000/svg"><path d="M25.323 51.015c13.824 0 25.03-11.207 25.03-25.031 0-13.824-11.206-25.03-25.03-25.03C11.5.953.293 12.16.293 25.983c0 13.824 11.206 25.03 25.03 25.03Z" fill="#A1D33C"/><path d="M19.179 35.8c-.4 1.303-.931 2.021-2.66 2.021-1.49 0-2.128-.559-2.128-1.49 0-.292.053-.611.16-.93l5.958-20.908c.399-1.33.93-2.022 2.633-2.022 1.516 0 2.181.559 2.181 1.463 0 .32-.106.639-.186.984L19.179 35.8Zm11.438 0c-.4 1.303-.931 2.021-2.66 2.021-1.49 0-2.128-.559-2.128-1.49 0-.292.053-.611.16-.93l5.958-20.908c.399-1.33.93-2.022 2.633-2.022 1.516 0 2.181.559 2.181 1.463 0 .32-.106.639-.186.984L30.617 35.8Z" fill="#fff"/></svg>